<?xml version="1.0" standalone="no"?>
<!DOCTYPE svg PUBLIC "-//W3C//DTD SVG 20010904//EN"
 "http://www.w3.org/TR/2001/REC-SVG-20010904/DTD/svg10.dtd">
<svg version="1.0" xmlns="http://www.w3.org/2000/svg"
 width="128.000000pt" height="128.000000pt" viewBox="0 0 128.000000 128.000000"
 preserveAspectRatio="xMidYMid meet">

<g transform="translate(0.000000,128.000000) scale(0.100000,-0.100000)"
fill="#000000" stroke="none">
<path d="M292 1173 c-17 -32 -24 -100 -13 -138 9 -32 7 -41 -20 -78 -38 -55
-51 -129 -39 -216 12 -83 31 -130 72 -177 39 -44 134 -91 200 -100 l48 -7 -15
-26 c-8 -14 -19 -38 -24 -52 -9 -26 -41 -39 -93 -39 -37 0 -90 33 -115 72 -30
44 -80 78 -116 78 -41 0 -40 -15 3 -49 23 -18 53 -58 70 -91 40 -78 81 -104
175 -107 l70 -2 3 -55 c2 -31 -2 -65 -8 -76 -10 -19 -8 -20 57 -20 152 0 324
13 313 24 -6 6 -10 63 -10 141 0 110 -3 136 -20 167 l-19 36 49 7 c73 10 160
56 203 106 85 98 98 285 28 390 -24 35 -27 47 -20 78 9 38 2 104 -13 134 -13
25 -63 16 -144 -27 -47 -25 -67 -30 -89 -24 -62 16 -167 20 -248 8 l-84 -12
-60 30 c-81 41 -128 50 -141 25z"/>
</g>
</svg>
