<?xml version="1.0" encoding="UTF-8"?>
<!DOCTYPE svg PUBLIC "-//W3C//DTD SVG 1.1//EN" "http://www.w3.org/Graphics/SVG/1.1/DTD/svg11.dtd">
<svg xmlns="http://www.w3.org/2000/svg" version="1.1" width="530px" height="360px" style="shape-rendering:geometricPrecision; text-rendering:geometricPrecision; image-rendering:optimizeQuality; fill-rule:evenodd; clip-rule:evenodd" xmlns:xlink="http://www.w3.org/1999/xlink">
<g><path style="opacity:1" fill="#7ffe00" d="M 9.5,11.5 C 74.8525,11.0397 140.186,11.5397 205.5,13C 228.917,14.1258 248.75,22.9591 265,39.5C 282.042,26.5681 301.209,18.4014 322.5,15C 350.751,11.2016 379.084,10.535 407.5,13C 434.22,15.1238 458.22,24.1238 479.5,40C 492.002,51.8281 500.835,65.9948 506,82.5C 508.213,90.6239 510.046,98.7906 511.5,107C 478.86,109.795 446.193,111.295 413.5,111.5C 406.743,81.0938 387.743,67.9272 356.5,72C 343.229,72.3653 334.062,78.532 329,90.5C 327.1,100.933 330.933,108.433 340.5,113C 346.363,115.399 352.363,117.399 358.5,119C 389.745,124.811 420.411,132.811 450.5,143C 511.199,165.563 532.699,208.063 515,270.5C 502.05,300.403 480.216,320.903 449.5,332C 429.412,338.884 408.746,342.551 387.5,343C 372.817,343.58 358.15,343.246 343.5,342C 331.781,341.266 320.281,339.432 309,336.5C 309.079,338.846 309.912,341.013 311.5,343C 275.5,343.667 239.5,343.667 203.5,343C 184.872,306.244 166.372,269.411 148,232.5C 139.157,214.534 124.657,206.534 104.5,208.5C 104.523,253.666 104.523,298.666 104.5,343.5C 72.8333,343.5 41.1667,343.5 9.5,343.5C 9.5,232.833 9.5,122.167 9.5,11.5 Z M 104.5,78.5 C 120.503,78.3334 136.503,78.5001 152.5,79C 184.446,80.0732 195.946,95.9065 187,126.5C 184.167,132 180,136.167 174.5,139C 166.015,141.764 157.348,143.764 148.5,145C 133.837,145.5 119.17,145.667 104.5,145.5C 104.5,123.167 104.5,100.833 104.5,78.5 Z M 262.5,168.5 C 283.392,183.274 306.392,193.774 331.5,200C 351.294,204.532 370.961,209.532 390.5,215C 400.004,217.665 408.171,222.499 415,229.5C 426.197,250.652 420.697,266.152 398.5,276C 375.497,283.098 354.497,279.432 335.5,265C 325.477,253.78 319.81,240.613 318.5,225.5C 296.829,226.542 275.162,227.376 253.5,228C 244.634,212.468 231.634,202.135 214.5,197C 228.218,193.14 240.884,187.14 252.5,179C 256.194,175.694 259.527,172.194 262.5,168.5 Z"/></g>
</svg>
